# xmcd
#
# Track frame offsets:
#	150
#	18902
#	37622
#
# Disc length: 750 seconds
#
# Revision: 0
# Processed by: cddbd v1.5.2PL0 Copyright (c) Steve Scherf et al.
# Submitted via: VUPlayer 2.49
#
DISCID=1102ec03
DTITLE=?? ?? - ???????????
DYEAR=1997
DGENRE=JPop
TTITLE0=???????????
TTITLE1=????
TTITLE2=???????????(?????????)
EXTD=YEAR: 1997
EXTT0=
EXTT1=
EXTT2=
PLAYORDER=
